<?xml version="1.0" encoding="UTF-8"?>
<svg width="110px" height="187px" viewBox="0 0 110 187" version="1.1" xmlns="http://www.w3.org/2000/svg" xmlns:xlink="http://www.w3.org/1999/xlink">
    <!-- Generator: Sketch 41 (35326) - http://www.bohemiancoding.com/sketch -->
    <title>Leaves 03 Light</title>
    <desc>Created with Sketch.</desc>
    <defs>
        <path d="M52.36,0.404431604 C52.36,0.404431604 104.72,97.9963797 104.72,126.982703 C104.72,127.822741 104.700103,128.65864 104.661348,129.489009 C104.658135,129.557511 104.654791,129.625979 104.651316,129.694415 C97.5188709,92.3672754 75.69276,58.168908 75.69276,58.168908 C75.69276,58.1697901 75.6932,58.1891958 75.6932,58.227566 C75.69364,59.5639104 75.25364,83.8029033 43.6986,128.928561 C43.0386,129.872382 42.40192,130.809146 41.7846,131.744587 C35.08956,122.980285 34.45156,118.009349 34.45156,118.009349 C34.45156,118.009349 30.6306,126.55225 29.17508,136.558514 C10.94368,115.16642 9.36188,102.836769 9.36188,102.836769 C9.36188,102.836769 3.61915102,115.676363 0.243453156,132.076483 C0.210405876,131.73255 0.18067032,131.387647 0.154278836,131.041807 C0.052235862,129.702306 0,128.347796 0,126.982703 C-2.50111043e-14,97.9964524 52.3597373,0.4049213 52.36,0.404431606 L104.72,0.404431604 L104.72,179.466193 L0,179.466193 L0,0.404431604 L52.36,0.404431604 L52.36,0.404431604 Z M18.2589723,166.810252 C18.0830447,166.658664 17.908166,166.505938 17.73464,166.352377 C17.70868,166.329884 17.68316,166.307392 17.65764,166.284458 C15.48976,160.319863 14.59128,156.507974 14.59128,156.507974 C14.59128,156.507974 16.0115494,160.870564 18.8195299,167.286152 C18.6315547,167.12881 18.4446979,166.970172 18.2589723,166.810252 L18.2589723,166.810252 Z M71.50132,175.848361 C77.60412,157.654231 79.98496,143.562193 79.98496,143.562193 C79.98496,143.562193 78.88936,156.560017 73.74928,174.901453 L71.50132,175.848361 Z" id="path-1"></path>
        <path d="M6.094,25.4611085 C3.93316,23.1535991 1.95096,20.932092 0.13508,18.8014387 C1.5906,8.79517453 5.41156,0.252273585 5.41156,0.252273585 C5.41156,0.252273585 6.04956,5.22320991 12.7446,13.9875118 L6.094,25.4611085 Z" id="path-3"></path>
        <path d="M51.3286682,76.6944229 C22.8870006,76.1436461 0,52.8609793 0,24.2209104 C-2.50111043e-14,18.4525774 2.07354769,9.96734149 5.39536325,0.0749764151 L51.3286682,0.0749764151 L51.3286682,76.6944229 L51.3286682,76.6944229 Z" id="path-5"></path>
        <path d="M18.8195299,64.5243598 C16.0115494,58.1087714 14.59128,53.7461816 14.59128,53.7461816 C14.59128,53.7461816 15.48976,57.5580708 17.65764,63.5226651 C12.21132,58.6875684 7.77832,52.733559 4.71592,46.0192005 C4.70550362,45.996446 4.6951091,45.973677 4.68473549,45.9508952 C4.2596753,45.0154253 3.86121315,44.0652519 3.49031764,43.1013458 C3.03836014,41.9265956 2.62735762,40.7313917 2.25896,39.5178632 C2.25571558,39.5072693 2.25248763,39.496692 2.2492731,39.4861274 C1.25999118,36.2190909 0.579996601,32.8171962 0.243453156,29.3146903 C3.61915102,12.9145704 9.36188,0.0749764151 9.36188,0.0749764151 C9.36188,0.0749764151 11.27544,14.9842571 35.134,40.4563915 C29.8166167,51.1043322 27.2382162,61.0426476 26.6917251,69.9758453 C23.8986502,68.3981496 21.2645512,66.5709294 18.8195291,64.5243589 L18.8195299,64.5243598 Z" id="path-7"></path>
        <path d="M25.96,121.69025 C54.87812,121.69025 78.32,98.1922005 78.32,69.2067594 C78.32,55.6285798 66.830623,26.9962388 54.615899,0.392964623 L0.179522676,0.392964623 L0.179522676,114.898133 C7.79001169,119.221804 16.5874153,121.69025 25.96,121.69025 Z" id="path-9"></path>
    </defs>
    <g id="Page-1" stroke="none" stroke-width="1" fill="none" fill-rule="evenodd">
        <g id="Leaves-03-Light">
            <path d="M55,184.317608 C26.08232,184.317608 2.64,160.819559 2.64,131.834118 C2.64,102.847795 55,5.2558467 55,5.2558467 C55,5.2558467 107.36,102.847795 107.36,131.834118 C107.36,160.819559 83.91812,184.317608 55,184.317608 Z" id="Fill-1179" fill="#856244"></path>
            <g id="Group-1182" transform="translate(2.640000, 4.851415)">
                <mask id="mask-2" fill="white">
                    <use xlink:href="#path-1"></use>
                </mask>
                <g id="Clip-1181"></g>
                <path d="M52.36,179.466193 C23.44232,179.466193 0,155.968144 0,126.982703 C0,97.9963797 52.36,0.404431604 52.36,0.404431604 C52.36,0.404431604 104.72,97.9963797 104.72,126.982703 C104.72,155.968144 81.27812,179.466193 52.36,179.466193 Z" id="Fill-1180" mask="url(#mask-2)"></path>
            </g>
            <path d="M32.1662,156.57854 C28.51596,142.033116 37.09156,122.860764 37.09156,122.860764 C37.09156,122.860764 38.07936,130.561724 50.50936,143.696269 C62.86324,156.749222 58.43816,169.138854 51.87776,171.959731 C43.85832,162.680738 39.73772,150.02516 39.73772,150.02516 C39.73772,150.02516 42.46176,161.587847 50.67436,172.399446 C43.7844,174.511575 35.63296,170.393165 32.1662,156.57854" id="Fill-1183" fill="#6C923F"></path>
            <g id="Group-1187" transform="translate(31.680000, 122.608491)">
                <mask id="mask-4" fill="white">
                    <use xlink:href="#path-3"></use>
                </mask>
                <g id="Clip-1186"></g>
                <path d="M75.68,9.22562736 C75.68,38.2110684 52.23812,61.7091179 23.32,61.7091179 C-5.59768,61.7091179 -29.04,38.2110684 -29.04,9.22562736 C-29.04,-19.7606958 23.32,-117.352644 23.32,-117.352644 C23.32,-117.352644 75.68,-19.7606958 75.68,9.22562736" id="Fill-1185" mask="url(#mask-4)"></path>
            </g>
            <g id="Group-1190" transform="translate(2.640000, 107.613208)">
                <mask id="mask-6" fill="white">
                    <use xlink:href="#path-5"></use>
                </mask>
                <g id="Clip-1189"></g>
                <path d="M-0.36916,66.6924033 C-7.58076,37.9552665 9.36188,0.0749764151 9.36188,0.0749764151 C9.36188,0.0749764151 11.3146,15.2907783 35.8732,41.2414387 C60.28176,67.0315613 51.53896,91.5100377 38.57656,97.0825495 C22.73128,78.750375 14.59128,53.7461816 14.59128,53.7461816 C14.59128,53.7461816 19.9738,76.5897311 36.1988,97.9500708 C22.58608,102.124493 6.48208,93.9869057 -0.36916,66.6924033" id="Fill-1188" fill="#7BA640" mask="url(#mask-6)"></path>
            </g>
            <g id="Group-1193" transform="translate(2.640000, 107.613208)">
                <mask id="mask-8" fill="white">
                    <use xlink:href="#path-7"></use>
                </mask>
                <g id="Clip-1192"></g>
                <path d="M104.72,24.2209104 C104.72,53.2063514 81.27812,76.7044009 52.36,76.7044009 C23.44232,76.7044009 0,53.2063514 0,24.2209104 C0,-4.76541274 52.36,-102.357361 52.36,-102.357361 C52.36,-102.357361 104.72,-4.76541274 104.72,24.2209104" id="Fill-1191" mask="url(#mask-8)"></path>
            </g>
            <g id="Group-1196" transform="translate(29.040000, 62.627358)">
                <mask id="mask-10" fill="white">
                    <use xlink:href="#path-9"></use>
                </mask>
                <g id="Clip-1195"></g>
                <path d="M80.0602,102.591111 C84.6802,55.8367005 49.29276,0.392964623 49.29276,0.392964623 C49.29276,0.392964623 49.77324,24.7117854 17.2986,71.1526179 C-14.97628,117.305453 4.43168,153.65005 26.0568,159.357519 C46.63912,126.902434 53.58496,85.78625 53.58496,85.78625 C53.58496,85.78625 50.46052,122.870467 29.98864,160.162854 C52.30808,163.525767 75.66856,146.997436 80.0602,102.591111" id="Fill-1194" fill="#85BF43" mask="url(#mask-10)"></path>
            </g>
            <path d="M55,184.317608 C26.08232,184.317608 2.64,160.819559 2.64,131.834118 C2.64,102.847795 55,5.2558467 55,5.2558467 C55,5.2558467 107.36,102.847795 107.36,131.834118 C107.36,160.819559 83.91812,184.317608 55,184.317608 Z" id="Fill-1197"></path>
            <path d="M55,10.1989976 C45.37588,28.5219104 4.95,106.975908 4.95,131.834118 C4.95,159.496446 27.40232,182.00216 55,182.00216 C82.59812,182.00216 105.05,159.496446 105.05,131.834118 C105.05,106.97238 64.62412,28.5214693 55,10.1989976 Z M55,186.633057 C24.85472,186.633057 0.33,162.050495 0.33,131.834118 C0.33,102.600814 50.81648,8.1649316 52.96588,4.15942689 L55,0.367384434 L57.03456,4.15942689 C59.18352,8.1649316 109.67,102.600814 109.67,131.834118 C109.67,162.050495 85.14528,186.633057 55,186.633057 L55,186.633057 Z" id="Fill-1199" fill="#FFFFFF"></path>
        </g>
    </g>
</svg>